<svg width="26" height="28" viewBox="0 0 26 28" fill="none" xmlns="http://www.w3.org/2000/svg">
<path d="M19.92 0.107377C16.4538 -0.327475 14.4544 0.68946 12.9996 0.834106C11.5458 0.689406 9.54642 -0.327475 6.08015 0.107377C2.10648 0.60699 -0.510047 3.78559 0.0839544 9.11327C0.69909 14.6327 4.52875 18.6995 4.9899 23.7824C5.43693 28.7055 8.45719 27.9948 9.22529 26.2519C9.99448 24.5091 11.3083 19.7165 12.9996 19.7165C14.691 19.7165 16.0058 24.5091 16.7739 26.2519C17.5431 27.9948 20.5634 28.7055 21.0103 23.7824C21.4714 18.6995 25.3012 14.6327 25.9163 9.11327C26.5093 3.78559 23.8937 0.60699 19.92 0.107377Z" fill="#EAEAEA"/>
</svg>
